<svg width="256" height="256" viewBox="0 0 256 256" xmlns="http://www.w3.org/2000/svg" role="img" aria-label="Familier, forme chouette">
  <defs>
    <radialGradient id="bg" cx="50%" cy="40%" r="72%">
      <stop offset="0%" stop-color="#26404f"/>
      <stop offset="100%" stop-color="#16242e"/>
    </radialGradient>
  </defs>
  <rect width="256" height="256" rx="48" fill="url(#bg)"/>
  <path d="M128 60 C74 60 58 104 58 148 C58 196 92 214 128 214 C164 214 198 196 198 148 C198 104 182 60 128 60 Z" fill="#28414f" stroke="#6f8494" stroke-width="2"/>
  <g fill="none" stroke="currentColor" stroke-width="5" color="#7a9a55">
    <circle cx="100" cy="128" r="30"/>
    <circle cx="156" cy="128" r="30"/>
  </g>
  <circle cx="100" cy="128" r="11" fill="currentColor" color="#7a9a55"/>
  <circle cx="156" cy="128" r="11" fill="currentColor" color="#7a9a55"/>
  <path d="M128 150 L118 166 L138 166 Z" fill="currentColor" color="#d7a746"/>
  <g fill="none" stroke="currentColor" stroke-width="4" stroke-linecap="round" color="#7a9a55">
    <path d="M104 74 L120 96"/>
    <path d="M152 74 L136 96"/>
  </g>
</svg>
