<svg width="1920" height="1080" viewBox="0 0 1920 1080" xmlns="http://www.w3.org/2000/svg" role="img" aria-label="Fond, carte">
  <defs>
    <linearGradient id="grid" x1="0" y1="0" x2="1" y2="1">
      <stop offset="0%" stop-color="#16323f"/>
      <stop offset="100%" stop-color="#0f2028"/>
    </linearGradient>
  </defs>
  <rect width="1920" height="1080" fill="url(#grid)"/>
  <g stroke="#2f7fa0" stroke-width="1.5" opacity="0.18">
    <path d="M160 0 V1080 M480 0 V1080 M800 0 V1080 M1120 0 V1080 M1440 0 V1080 M1760 0 V1080"/>
    <path d="M0 160 H1920 M0 400 H1920 M0 640 H1920 M0 880 H1920"/>
  </g>
  <g fill="none" stroke="#d7a746" stroke-width="3" opacity="0.55">
    <path d="M320 820 L640 520 L1000 640 L1360 360 L1680 480"/>
  </g>
  <g fill="#7a9a55">
    <circle cx="320" cy="820" r="12"/>
    <circle cx="1000" cy="640" r="12"/>
    <circle cx="1680" cy="480" r="12"/>
  </g>
  <g fill="#d7a746">
    <circle cx="640" cy="520" r="12"/>
    <circle cx="1360" cy="360" r="12"/>
  </g>
</svg>
